<?xml version="1.0" encoding="utf-8"?>
<!-- Generator: Adobe Illustrator 27.1.1, SVG Export Plug-In . SVG Version: 6.00 Build 0)  -->
<svg version="1.1" xmlns="http://www.w3.org/2000/svg" xmlns:xlink="http://www.w3.org/1999/xlink" x="0px" y="0px"
	 viewBox="0 0 399 310.3" style="enable-background:new 0 0 399 310.3;" xml:space="preserve">
<style type="text/css">
	.st0{fill:none;}
	.st1{fill:#E01316;}
	.st2{fill:#FFFFFF;}
	.st3{fill:#A7C830;}
	.st4{fill:#F3F4E3;}
	.st5{fill:#DB2E6E;}
	.st6{fill:#3F79B9;}
	.st7{fill:#3C455E;}
	.st8{fill:#3C455E;stroke:#CDD1D2;stroke-width:3;}
</style>
<g id="Calque_3">
</g>
<g id="Calque_1">
	<g>
		<path class="st0" d="M242.6,135.9c0.3-0.5-3.5-2-6.1-5.5l2.3,4.3C241.5,136,242.4,136.1,242.6,135.9z"/>
		<path class="st1" d="M272.9,25.2c-1.7-2.8-5-8.2-10.4-8.7c-4.8-0.5-8.6,3.1-10.8,5.2c-5.7,5.3-7.7,11.7-9.2,16.8
			c-1.1,3.7-2.3,9.3-2.1,16.4c0.5,1.1,1.4,2.9,3.1,4.6c1.8,1.8,3.8,2.7,4.9,3.1c-1,0.2-2.7,0.4-4.9-0.1c-2-0.5-3.4-1.4-4.1-2
			c-0.5,3.7-1,7.4-1.5,11.2c-1.3,11.6-1.8,22.6-1.9,32.9c1,2.1,2.7,5,5.5,7.6c3.9,3.6,7.9,5,7.8,5.3c-0.1,0.3-3.9-0.6-7.6-3.1
			c-3.1-2.1-5.5-4.9-6-4.5c-0.2,0.1,0,0.5,0,0.6c-0.7,10.1-2.2,13.3-0.9,17l1.6,3c2.6,3.5,6.4,5,6.1,5.5c-0.1,0.2-1,0-3.8-1.2
			l12.6,23.4c0.1,0,0.1,0,0.2,0c8.5,0.4,14.3-6.5,15.3-7.7c4.4-5.3,5-11.6,5.7-18.5c0.7-8.2,1.3-14,1.7-19.4
			c-0.7,0.6-1.9,1.5-3.7,2.1c-2,0.7-3.7,0.6-4.6,0.4c1.6-0.8,3.5-2.1,5.4-3.9c1.2-1.1,2.2-2.3,3-3.3c0.8-16,1.6-26.5,2.3-33.3
			c0.1-1.3,0.4-5.4,0.9-11.1c0.5-6,0.4-10.5,0.6-17.2C278.1,43,278.3,33.9,272.9,25.2z"/>
		<path class="st2" d="M236.5,130.5l-1.6-3c0.1,0.3,0.3,0.7,0.4,1C235.6,129.2,236,129.9,236.5,130.5z"/>
	</g>
	<g>
		<path class="st3" d="M258.3,74.4c0,0,16.5-8.3,19.3-12.9c-0.7,8.4-1.3,16.8-2,25.3c-1.5,1.3-3.4,2.8-5.6,4.1c-4.9,3-9.6,4.4-13,5
			L258.3,74.4z"/>
		<path class="st4" d="M269.7,38.5c-0.7,8.4-5.4,14.8-10.6,14.4c-5.2-0.4-8.8-7.5-8.2-15.9c0.7-8.4,5.4-14.8,10.6-14.4
			C266.7,23,270.3,30.1,269.7,38.5z"/>
		
			<ellipse transform="matrix(8.013140e-02 -0.9968 0.9968 8.013140e-02 201.8762 294.2506)" class="st3" cx="260.4" cy="37.7" rx="11.5" ry="7.1"/>
	</g>
	<g>
		<path class="st5" d="M265.6,177c0.9,0.7,2.8,2,7.4,1.8c9.5-0.3,13.5-6,24.8-8.3c2.8-0.6,5.2-0.7,6.6-0.8c-1.3-0.8-2.6-1.6-3.9-2.4
			c0,0,22.1-3.1,35.7-10.7c0,0,2.5-1.1,3.8,0.5c0,0-0.1-4.1-5.6-5.2c0,0,26.6-7.2,38.1-16l-4.2-1c0,0,21-11.3,17.8-28.8l-6.2,3
			l4.3-5.5c0,0-0.2-9.7-16.1-15.1c0,0-9.2-1-15.3,4.3l-1-4.1c-1,0.9-2.4,2.2-4.4,3.7c-2.9,2.2-4.7,3-8,5.2c0,0-2.7,1.8-6.4,4.5
			c-3,2.2-7.9,6.5-13.8,14.3l-1.6-4.9c-0.7,0.8-1.7,2-2.9,3.4c-10.8,11.9-18.4,15.5-28.5,23.5c-2.2,1.8-24,19.3-23.4,31.7
			C262.9,171.3,263.1,174.9,265.6,177z"/>
		<path class="st6" d="M357.8,90.1c1.6,6.5,6.5,11.5,12.6,12.9c6.7,1.5,12-2.1,12.9-2.7c-0.3-0.7-5.2-10.9-15.5-12.1
			C363.3,87.7,359.6,89.2,357.8,90.1z"/>
		<path class="st3" d="M334.6,123.7c3.6,3,7.9,6.3,13.1,9.5c5.8,3.5,11.3,6.1,16,8c-1,0.5-2.2,1.1-3.3,1.6c-1.3,0.6-2.5,1.1-3.7,1.5
			c-3.9-1.5-8.3-3.6-13-6.4c-5.9-3.5-10.7-7.3-14.4-10.6C331.1,126.1,332.8,124.9,334.6,123.7z"/>
		<path class="st3" d="M324.2,130.5c0,0,20.7,16,25.7,16.4c0,0-5.2,1.8-6.1,2.1c0,0-15.9-8.1-23.4-16.1L324.2,130.5z"/>
		<path class="st2" d="M359.8,89.4c0.2,0.7,2,7.8,9.1,10.8c7.1,3,13.3-0.6,14-1c-0.5-1-5.1-9.6-14.3-10.9
			C364.8,87.8,361.6,88.7,359.8,89.4z"/>
		<path class="st6" d="M361.5,88.9c0,0,5.2,14.9,20.8,9.3c-0.7-1.2-5.1-8.6-13.6-9.9C365.8,87.9,363.3,88.4,361.5,88.9z"/>
	</g>
	<g>
		<path class="st6" d="M266.3,163.2c-1.5-2.5-3-5.7-4.3-9.6c-1.8-5.3-2.4-10.1-2.6-13.7c0.7,0.9,1.7,2.2,3.3,3.4
			c1.8,1.5,4.2,2.9,4.4,2.6c0.3-0.3-2.6-2.5-5.3-6.6c-1.2-1.8-2.1-3.5-2.6-4.6c3.9-14.9,12.3-38.2,31.7-60.1
			c7.1-8,14.3-14.3,21-19.3c-0.1,0.7-0.1,1.6,0.1,2.6c0.7,2.9,3.2,4.4,3.8,4.7c-0.5-1.2-1.2-3-1.4-5.2c-0.2-1.7-0.1-3.1,0.1-4.2
			c2.2-1.9,5-4.2,8.6-6.2c2.3-1.3,4.4-2.2,6.3-2.9c-0.1,0.9-0.1,2.2,0.3,3.6c0.8,3,2.6,4.8,3.5,5.6c-0.5-1-1.6-3.7-1-7
			c0.3-1.4,0.8-2.6,1.2-3.4c1.8-1,4.2-2.1,7.2-2.9c2.3-0.6,4.4-0.9,6.1-1.1c-4.6,15.9-11.7,35.3-23,56.1
			c-8.8,16.2-18.2,29.6-26.8,40.5c-1,0.6-2.7,1.4-5.1,1.5c-1,0.1-2-0.1-2.7-0.2c1.9,0.3,3.9,0.7,5.8,1c-3.9,4.6-8.8,9.7-14.7,14.9
			C275.3,157,270.6,160.4,266.3,163.2z"/>
		<path class="st5" d="M306.1,95.9l21.6-8.8c-1.5,3.1-3.2,6.3-5,9.5c-1.7,3.1-3.4,6.1-5.2,8.9c-7.7,2.4-15.5,4.7-23.2,7.1
			C294.4,112.6,294.4,112.6,306.1,95.9z"/>
		<path class="st5" d="M320.4,73.9c3.1-0.9,6.3-2,9.7-3.3c2.2-0.9,4.4-1.8,6.4-2.7c0.9-2.2,1.8-4.4,2.7-6.6c0.7-1.9,1.4-3.9,2-5.8
			c-1.9,0.8-4,1.6-6.2,2.4c-1.5,0.5-2.9,0.9-4.3,1.3C327.3,64.1,323.9,69,320.4,73.9z"/>
		<path class="st3" d="M302.1,63.4c-3.2,2.7-6.6,5.9-10.1,9.7c-4.3,4.7-7.8,9.2-10.5,13.4c1.3,0.7,3.4,1.6,6.1,1.9
			c5.3,0.4,10.9-2,14.2-6.5C305.5,76.5,305.7,69.2,302.1,63.4z"/>
	</g>
	<g>
		<path class="st7" d="M261.4,27.6c-2.8,26.1-5.3,53-7.4,80.7c-1.2,16.6-2.3,32.9-3.2,48.9l2.2,4.1
			C255.8,116.7,258.6,72.1,261.4,27.6z"/>
		<path class="st7" d="M298.8,145.7c-5.1,3.7-15.4,12-36.1,28.5c-0.2,0.2-0.5,0.4-0.7,0.6c-0.2,0.6-0.5,1.2-0.7,1.8l0.6,1.2
			c0.7-0.6,1.4-1.2,2.2-1.8c21.9-17.7,33-26.6,41.2-32.6c28.1-20.3,50-30.3,49.9-30.6C355,112.4,328.5,123.8,298.8,145.7z"/>
		<path class="st7" d="M262,174.8c0.3-0.9,0.7-1.8,1.1-2.8c7-17.7,14.8-32.1,31.4-58.1c26.4-41.5,46.3-67.6,46-67.8
			c-0.3-0.2-17.3,21.1-36.1,49.9c-6,9.2-10.9,17.2-14.6,23.4c-5.6,8.1-9.8,15.2-12.9,20.4c-4.6,8.1-11.1,19.4-17,34.3l0.8,1.6
			C261.2,175.4,261.6,175.1,262,174.8z"/>
		<path class="st7" d="M261.3,176.6c0.2-0.6,0.5-1.2,0.7-1.8c-0.4,0.3-0.8,0.6-1.2,0.9L261.3,176.6z"/>
		<path class="st2" d="M260.4,178.9c0.5-0.4,1-0.8,1.5-1.2l-0.6-1.2C261,177.4,260.7,178.2,260.4,178.9z"/>
	</g>
	<g>
		<path class="st7" d="M288.8,193.4l-52.5-87.6l-31.2,22.6c-8-8.1-49.4-53.8-49.4-53.8L26.6,194.5l29.3-7.5l96.6-88.6
			c46.7,35.4-1.9,87.1-1.9,87.1l70-52l12.6-9.4l31,57.8L288.8,193.4z"/>
	</g>
</g>
<g id="Calque_2">
	<path class="st8" d="M104.8,278.7c-0.6-0.5-1-1.3-0.9-2.1l4.4-49.3l1.6-20.3c0.1-0.8,0.5-1.5,1.2-1.9l1.3-0.8
		c0.3-0.2,0.7-0.3,1.1-0.4l15.3-1.5c0.1,0,0.2,0,0.4,0l0.2,0c1.4,0.1,2.5,1.4,2.3,2.8l0,0.1c0,0.1,0,0.1,0,0.2l-2.4,12
		c0,0.1,0,0.1,0,0.2l-2,16.1l-1.5,14.4c0,0.1,0,0.2,0,0.3l0,8.6c0,0.3,0,0.5,0.1,0.7l0.4,1.3c0.4,1.1,1.5,1.8,2.7,1.7l6.7-0.9
		c0.1,0,0.2,0,0.3,0l11.9-2.9l0.8-1.2l0.6-14.7c0-0.1,0-0.1,0-0.2l-0.2-7.4c-0.2-4-0.5-6.9-0.7-8.9c-0.3-2-0.8-4.1-1.5-6.5l-2.7-8.9
		c-0.1-0.2-0.1-0.4-0.1-0.6v0c-0.1-1.3,0.9-2.5,2.2-2.6l7.1-0.7c0.1,0,0.2,0,0.3-0.1l11-2.7l4.9-1l0.9,0.9l-2.1,10.8
		c0,0.1,0,0.1,0,0.2l-1.6,12.9l-1.7,22.9l-1.8,19.4l-0.6,8.8l-1.2,0.9l-27.1,1.3l-17.6,0.9c-0.1,0-0.2,0-0.3,0l-9.3-0.6
		c-0.5,0-1-0.2-1.4-0.5L104.8,278.7z"/>
	<path class="st8" d="M285.8,274l-7.9-0.7c-0.1,0-0.2,0-0.2,0l-9.9-1.9c-0.1,0-0.1,0-0.2,0l-4-0.4l-0.4-0.4l1.2-5.3
		c0-0.1,0-0.1,0-0.2l-0.2,1.7c0-0.1,0-0.2,0-0.3l0.6-16.4c0-0.1,0-0.1,0-0.2l-0.8-23.8c0-0.1,0-0.2,0-0.2c0.1-2.2,0.3-3.8,0.5-4.8
		c0-0.1,0.1-0.3,0.1-0.4c0.4-1.4,1.9-2.2,3.3-1.7l2.3,0.9c0.1,0,0.1,0.1,0.2,0.1l9.5,4.6c0.1,0,0.1,0.1,0.2,0.1l4.2,2.5
		c0.8,0.5,1.2,1.3,1.2,2.2l-0.1,2.2c0,0,0,0.1,0,0.1l-1,8.8c0,0.1,0,0.2,0,0.2l-0.1,13l1.5,11.4l0.4,8.4L285.8,274z"/>
	<path class="st8" d="M14.7,294.8l0-0.8c0-0.2,0.1-0.5,0.1-0.7l2.5-6.8l3.5-8.6c0-0.1,0.1-0.1,0.1-0.2l3.3-10.9
		c0.4-1.2,1.7-2,2.9-1.7l0.6,0.1c0.1,0,0.1,0,0.2,0l15.4,2.6l13.9,1.7c0.4,0,1,0,1.7-0.2c3-0.5,5.5-1.9,7.6-4.1l-0.3-1.4
		c-0.2-0.8-0.5-1.6-0.9-2.3c-0.4-0.7-0.8-1.4-1.3-2.1l-5.3-6.8c-0.1-0.1-0.2-0.2-0.2-0.3l-6.9-6.5c-1.2-1.1-2.5-2.1-3.9-3
		c-2-1.4-3.9-2.5-5.5-3.4c-1.6-0.9-3.6-1.7-5.9-2.6c-2.3-0.9-4.9-1.6-7.7-2.2c-3.7-0.8-7.2-1.1-10.6-1.2l-0.9-1l0.7-1.5
		c0.1-0.1,0.1-0.2,0.1-0.3l5.4-17l2.1-6.3l1.6-0.4l1.5-0.4l3.1-0.7l20-4.8l20.8-5.5c0.4-0.1,0.7-0.1,1.1,0l1.3,0.3
		c1.2,0.2,2,1.3,2,2.5l-0.1,1.7c0,0.1,0,0.1,0,0.2l-2.1,15.6l-0.7,5.5l-1.1,0.2L62.1,219c-0.1,0-0.2,0-0.3-0.1l-8.6-0.9
		c-0.9-0.1-1.7-0.1-2.4,0c-0.4,0.1-0.9,0.2-1.3,0.3c-1.7,0.6-2.3,2.8-1,4.1l0.6,0.6c0.2,0.2,0.4,0.3,0.6,0.4l11.8,6.3
		c0.1,0,0.2,0.1,0.3,0.2l11.9,8.5c0.1,0.1,0.2,0.2,0.3,0.3l8.4,8.3c0.1,0,0.1,0.1,0.1,0.2l8.7,10.1c0.3,0.3,0.4,0.7,0.5,1l0.9,3.8
		c0.1,0.3,0.1,0.7,0,1l-3.4,17.2c-0.4,0.3-0.9,0.6-1.4,0.8c-0.4,0.2-1,0.4-1.7,0.6l-3.8,0.7L60.6,287l-38.8,9.2l-4,1
		C16.2,297.7,14.6,296.4,14.7,294.8z"/>
	<path class="st8" d="M177.3,273.3l0-0.1c0-0.4,0.2-0.8,0.4-1.2l1.5-2.1c0.1-0.1,0.2-0.3,0.3-0.5l3.5-8.3c0-0.1,0.1-0.1,0.1-0.2
		l3.4-10.9c0.4-1.2,1.7-2,2.9-1.7l0.6,0.1c0.1,0,0.1,0,0.2,0l15.4,2.7l13.9,1.7c0.4,0,1,0,1.7-0.2c3-0.5,5.5-1.8,7.6-4.1l-0.3-1.4
		c-0.2-0.8-0.5-1.6-0.9-2.3c-0.4-0.7-0.8-1.4-1.3-2.1l-5.3-6.8c-0.1-0.1-0.2-0.2-0.2-0.3l-6.9-6.6c-1.2-1.1-2.5-2.1-3.9-3.1
		c-2-1.4-3.8-2.6-5.5-3.5c-1.6-0.9-3.6-1.8-5.9-2.6c-2.3-0.9-4.9-1.6-7.7-2.3c-3.7-0.8-7.2-1.2-10.6-1.2l-0.9-1l0.7-1.5
		c0.1-0.1,0.1-0.2,0.1-0.3l5.4-16.9l2.1-6.3l1.6-0.4l1.5-0.3l3.1-0.7l20-4.7l20.8-5.4c0.4-0.1,0.7-0.1,1.1,0l1.3,0.3
		c1.2,0.2,2,1.3,2,2.5l-0.1,1.7c0,0.1,0,0.1,0,0.2l-2.2,15.5l-0.7,5.5l-1.1,0.2l-10.6-2.5c-0.1,0-0.2,0-0.3-0.1l-8.6-1
		c-0.9-0.1-1.7-0.1-2.4,0c-0.4,0.1-0.9,0.2-1.3,0.3c-1.7,0.6-2.3,2.8-1,4.1l0.6,0.6c0.2,0.2,0.4,0.3,0.6,0.4l11.8,6.4
		c0.1,0,0.2,0.1,0.3,0.2l11.9,8.5c0.1,0.1,0.2,0.2,0.3,0.3l8.4,8.3c0.1,0.1,0.1,0.1,0.1,0.2l8.6,10.2c0.3,0.3,0.4,0.7,0.5,1l0.9,3.8
		c0.1,0.3,0.1,0.7,0,1l-3.5,17.1c0,0.1,0,0.1,0,0.2c-0.2,1.5-0.5,4.5-0.7,5c-0.1,0.2-0.2,0.6-0.3,1.1c-0.2,1.1-1.2,1.9-2.3,2
		l-2.1,0.1l-22.9,1.3l-38.7,2.3l-4.3,0.2C178.4,276.1,177.1,274.8,177.3,273.3z"/>
	<path class="st8" d="M285.6,212c-0.4,1.5-2.1,2.4-3.5,1.7l-12.2-6l-2.9-1.4c-0.1,0-0.1-0.1-0.2-0.1l-1.3-0.7
		c-0.8-0.5-1.3-1.3-1.2-2.2l0.1-3.4l0.1-3.4c0.1-1.1,0.3-1.9,0.7-2.4c0.4-0.5,0.8-0.6,1.2-0.4l13.6,5.9c0.1,0.1,0.3,0.1,0.4,0.2
		l4.9,3.4c0.7,0.5,1.1,1.3,1.1,2.1l-0.1,4.1c0,0.2,0,0.3-0.1,0.5L285.6,212z"/>
</g>
</svg>
